<svg version="1.1" xmlns="http://www.w3.org/2000/svg" xmlns:xlink="http://www.w3.org/1999/xlink" width="571" height="459"><defs></defs><g><g transform="translate(2,2) scale(1,1)"><path fill="#ffffff" stroke="none" d="M 64.32072727272727 17.68 C 64.32072727272727 12.886167936 68.20656959767273 9 73 9 C 77.79343040232727 9 81.67927272727273 12.886167936 81.67927272727273 17.68 C 81.67927272727273 22.473832064 77.79343040232727 26.36 73 26.36 C 68.20656959767273 26.36 64.32072727272727 22.473832064 64.32072727272727 17.68 Z"></path></g><g transform="translate(2,2) scale(1,1)"><path fill="none" stroke="#000000" d="M 64.32072727272727 17.68 C 64.32072727272727 12.886167936 68.20656959767273 9 73 9 C 77.79343040232727 9 81.67927272727273 12.886167936 81.67927272727273 17.68 C 81.67927272727273 22.473832064 77.79343040232727 26.36 73 26.36 C 68.20656959767273 26.36 64.32072727272727 22.473832064 64.32072727272727 17.68 Z" stroke-miterlimit="10"></path></g><g transform="translate(2,2) scale(1,1)"><path fill="none" stroke="#000000" d="M 73 26.36 L 73 43.64" stroke-miterlimit="10"></path></g><g transform="translate(2,2) scale(1,1)"><path fill="none" stroke="#000000" d="M 63.81018181818182 32.84 L 82.18981818181818 32.84" stroke-miterlimit="10"></path></g><g transform="translate(2,2) scale(1,1)"><path fill="none" stroke="#000000" d="M 73 43.64 L 60.236363636363635 61" stroke-miterlimit="10"></path></g><g transform="translate(2,2) scale(1,1)"><path fill="none" stroke="#000000" d="M 73 43.64 L 85.76363636363637 61" stroke-miterlimit="10"></path></g><g transform="translate(2,2) scale(1,1)"><g><path fill="none" stroke="none"></path><text fill="#000000" stroke="none" font-family="Arial" font-size="13px" font-style="normal" font-weight="bold" text-decoration="none" x="16" y="81.5">Recursos Humanos</text></g></g><g transform="translate(2,2) scale(1,1)"><path fill="#ffffff" stroke="none" d="M 69.32072727272727 185.68 C 69.32072727272727 180.886167936 73.20656959767273 177 78 177 C 82.79343040232727 177 86.67927272727273 180.886167936 86.67927272727273 185.68 C 86.67927272727273 190.47383206400002 82.79343040232727 194.36 78 194.36 C 73.20656959767273 194.36 69.32072727272727 190.47383206400002 69.32072727272727 185.68 Z"></path></g><g transform="translate(2,2) scale(1,1)"><path fill="none" stroke="#000000" d="M 69.32072727272727 185.68 C 69.32072727272727 180.886167936 73.20656959767273 177 78 177 C 82.79343040232727 177 86.67927272727273 180.886167936 86.67927272727273 185.68 C 86.67927272727273 190.47383206400002 82.79343040232727 194.36 78 194.36 C 73.20656959767273 194.36 69.32072727272727 190.47383206400002 69.32072727272727 185.68 Z" stroke-miterlimit="10"></path></g><g transform="translate(2,2) scale(1,1)"><path fill="none" stroke="#000000" d="M 78 194.36 L 78 211.64" stroke-miterlimit="10"></path></g><g transform="translate(2,2) scale(1,1)"><path fill="none" stroke="#000000" d="M 68.81018181818182 200.84 L 87.18981818181818 200.84" stroke-miterlimit="10"></path></g><g transform="translate(2,2) scale(1,1)"><path fill="none" stroke="#000000" d="M 78 211.64 L 65.23636363636363 229" stroke-miterlimit="10"></path></g><g transform="translate(2,2) scale(1,1)"><path fill="none" stroke="#000000" d="M 78 211.64 L 90.76363636363637 229" stroke-miterlimit="10"></path></g><g transform="translate(2,2) scale(1,1)"><g><path fill="none" stroke="none"></path><text fill="#000000" stroke="none" font-family="Arial" font-size="13px" font-style="normal" font-weight="bold" text-decoration="none" x="36.5" y="249.5">Colaboradores</text></g></g><g transform="translate(2,2) scale(1,1)"><path fill="#ffffff" stroke="none" d="M 66.82072727272727 377.68 C 66.82072727272727 372.886167936 70.70656959767273 369 75.5 369 C 80.29343040232727 369 84.17927272727273 372.886167936 84.17927272727273 377.68 C 84.17927272727273 382.473832064 80.29343040232727 386.36 75.5 386.36 C 70.70656959767273 386.36 66.82072727272727 382.473832064 66.82072727272727 377.68 Z"></path></g><g transform="translate(2,2) scale(1,1)"><path fill="none" stroke="#000000" d="M 66.82072727272727 377.68 C 66.82072727272727 372.886167936 70.70656959767273 369 75.5 369 C 80.29343040232727 369 84.17927272727273 372.886167936 84.17927272727273 377.68 C 84.17927272727273 382.473832064 80.29343040232727 386.36 75.5 386.36 C 70.70656959767273 386.36 66.82072727272727 382.473832064 66.82072727272727 377.68 Z" stroke-miterlimit="10"></path></g><g transform="translate(2,2) scale(1,1)"><path fill="none" stroke="#000000" d="M 75.5 386.36 L 75.5 403.64" stroke-miterlimit="10"></path></g><g transform="translate(2,2) scale(1,1)"><path fill="none" stroke="#000000" d="M 66.31018181818182 392.84 L 84.68981818181818 392.84" stroke-miterlimit="10"></path></g><g transform="translate(2,2) scale(1,1)"><path fill="none" stroke="#000000" d="M 75.5 403.64 L 62.736363636363635 421" stroke-miterlimit="10"></path></g><g transform="translate(2,2) scale(1,1)"><path fill="none" stroke="#000000" d="M 75.5 403.64 L 88.26363636363637 421" stroke-miterlimit="10"></path></g><g transform="translate(2,2) scale(1,1)"><g><path fill="none" stroke="none"></path><text fill="#000000" stroke="none" font-family="Arial" font-size="13px" font-style="normal" font-weight="bold" text-decoration="none" x="43" y="441.5">Candidatos</text></g></g><g transform="translate(2,2) scale(1,1)"><path fill="#C0C0C0" stroke="none" d="M 351 316 C 351 306.6111584 383.2354944 299 423 299 C 462.7645056 299 495 306.6111584 495 316 C 495 325.3888416 462.7645056 333 423 333 C 383.2354944 333 351 325.3888416 351 316 Z" opacity="0.2"></path></g><g transform="translate(2,2) scale(1,1)"><path fill="#ffffff" stroke="none" d="M 344 309 C 344 299.6111584 376.2354944 292 416 292 C 455.7645056 292 488 299.6111584 488 309 C 488 318.3888416 455.7645056 326 416 326 C 376.2354944 326 344 318.3888416 344 309 Z"></path></g><g transform="translate(2,2) scale(1,1)"><path fill="none" stroke="#000000" d="M 344 309 C 344 299.6111584 376.2354944 292 416 292 C 455.7645056 292 488 299.6111584 488 309 C 488 318.3888416 455.7645056 326 416 326 C 376.2354944 326 344 318.3888416 344 309 Z" stroke-miterlimit="10"></path></g><g transform="translate(2,2) scale(1,1)"><g><path fill="none" stroke="none"></path><text fill="#000000" stroke="none" font-family="Arial" font-size="13px" font-style="normal" font-weight="bold" text-decoration="none" x="372.5" y="316">Atualizar Ficha</text></g></g><g transform="translate(2,2) scale(1,1)"><path fill="#C0C0C0" stroke="none" d="M 375 208 C 375 198.6111584 397.38576 191 425 191 C 452.61424 191 475 198.6111584 475 208 C 475 217.3888416 452.61424 225 425 225 C 397.38576 225 375 217.3888416 375 208 Z" opacity="0.2"></path></g><g transform="translate(2,2) scale(1,1)"><path fill="#ffffff" stroke="none" d="M 368 201 C 368 191.6111584 390.38576 184 418 184 C 445.61424 184 468 191.6111584 468 201 C 468 210.3888416 445.61424 218 418 218 C 390.38576 218 368 210.3888416 368 201 Z"></path></g><g transform="translate(2,2) scale(1,1)"><path fill="none" stroke="#000000" d="M 368 201 C 368 191.6111584 390.38576 184 418 184 C 445.61424 184 468 191.6111584 468 201 C 468 210.3888416 445.61424 218 418 218 C 390.38576 218 368 210.3888416 368 201 Z" stroke-miterlimit="10"></path></g><g transform="translate(2,2) scale(1,1)"><g><path fill="none" stroke="none"></path><text fill="#000000" stroke="none" font-family="Arial" font-size="13px" font-style="normal" font-weight="bold" text-decoration="none" x="389" y="208">Pesquisar</text></g></g><g transform="translate(2,2) scale(1,1)"><path fill="#C0C0C0" stroke="none" d="M 303 56 C 303 46.6111584 361.8745488 39 434.5 39 C 507.1254512 39 566 46.6111584 566 56 C 566 65.3888416 507.1254512 73 434.5 73 C 361.8745488 73 303 65.3888416 303 56 Z" opacity="0.2"></path></g><g transform="translate(2,2) scale(1,1)"><path fill="#ffffff" stroke="none" d="M 296 49 C 296 39.6111584 354.8745488 32 427.5 32 C 500.1254512 32 559 39.6111584 559 49 C 559 58.3888416 500.1254512 66 427.5 66 C 354.8745488 66 296 58.3888416 296 49 Z"></path></g><g transform="translate(2,2) scale(1,1)"><path fill="none" stroke="#000000" d="M 296 49 C 296 39.6111584 354.8745488 32 427.5 32 C 500.1254512 32 559 39.6111584 559 49 C 559 58.3888416 500.1254512 66 427.5 66 C 354.8745488 66 296 58.3888416 296 49 Z" stroke-miterlimit="10"></path></g><g transform="translate(2,2) scale(1,1)"><g><path fill="none" stroke="none"></path><text fill="#000000" stroke="none" font-family="Arial" font-size="13px" font-style="normal" font-weight="bold" text-decoration="none" x="347" y="56">Adicionar Novo Colaborador</text></g></g><g transform="translate(2,2) scale(1,1)"><path fill="#C0C0C0" stroke="none" d="M 363 368 C 363 358.6111584 388.2959088 351 419.5 351 C 450.7040912 351 476 358.6111584 476 368 C 476 377.3888416 450.7040912 385 419.5 385 C 388.2959088 385 363 377.3888416 363 368 Z" opacity="0.2"></path></g><g transform="translate(2,2) scale(1,1)"><path fill="#ffffff" stroke="none" d="M 356 361 C 356 351.6111584 381.2959088 344 412.5 344 C 443.7040912 344 469 351.6111584 469 361 C 469 370.3888416 443.7040912 378 412.5 378 C 381.2959088 378 356 370.3888416 356 361 Z"></path></g><g transform="translate(2,2) scale(1,1)"><path fill="none" stroke="#000000" d="M 356 361 C 356 351.6111584 381.2959088 344 412.5 344 C 443.7040912 344 469 351.6111584 469 361 C 469 370.3888416 443.7040912 378 412.5 378 C 381.2959088 378 356 370.3888416 356 361 Z" stroke-miterlimit="10"></path></g><g transform="translate(2,2) scale(1,1)"><g><path fill="none" stroke="none"></path><text fill="#000000" stroke="none" font-family="Arial" font-size="13px" font-style="normal" font-weight="bold" text-decoration="none" x="379.5" y="368">Candidatar </text></g></g><g transform="translate(2,2) scale(1,1)"><path fill="#C0C0C0" stroke="none" d="M 331 132 C 331 122.6111584 373.9806592 115 427 115 C 480.0193408 115 523 122.6111584 523 132 C 523 141.3888416 480.0193408 149 427 149 C 373.9806592 149 331 141.3888416 331 132 Z" opacity="0.2"></path></g><g transform="translate(2,2) scale(1,1)"><path fill="#ffffff" stroke="none" d="M 324 125 C 324 115.6111584 366.9806592 108 420 108 C 473.0193408 108 516 115.6111584 516 125 C 516 134.3888416 473.0193408 142 420 142 C 366.9806592 142 324 134.3888416 324 125 Z"></path></g><g transform="translate(2,2) scale(1,1)"><path fill="none" stroke="#000000" d="M 324 125 C 324 115.6111584 366.9806592 108 420 108 C 473.0193408 108 516 115.6111584 516 125 C 516 134.3888416 473.0193408 142 420 142 C 366.9806592 142 324 134.3888416 324 125 Z" stroke-miterlimit="10"></path></g><g transform="translate(2,2) scale(1,1)"><g><path fill="none" stroke="none"></path><text fill="#000000" stroke="none" font-family="Arial" font-size="13px" font-style="normal" font-weight="bold" text-decoration="none" x="362" y="132">Adicionar Candidato</text></g></g><g transform="translate(2,2) scale(1,1)"><path fill="none" stroke="#000000" d="M 356 360 L 148 360 L 148 407 L 119 407" stroke-miterlimit="10"></path></g><g transform="translate(2,2) scale(1,1)"><path fill="none" stroke="#000000" d="M 344 309 L 158 309 L 158 215 L 128 215" stroke-miterlimit="10"></path></g><g transform="translate(2,2) scale(1,1)"><path fill="none" stroke="#000000" d="M 368 200 L 168 200 L 168 47 L 138 47" stroke-miterlimit="10"></path></g><g transform="translate(2,2) scale(1,1)"><path fill="none" stroke="#000000" d="M 324 125 L 168 125 L 168 47 L 138 47" stroke-miterlimit="10"></path></g><g transform="translate(2,2) scale(1,1)"><path fill="none" stroke="#000000" d="M 296 48 L 168 48 L 168 47 L 138 47" stroke-miterlimit="10"></path></g></g></svg>